HIERARCHY
ROOT Hips
{
	OFFSET 0.000000 100.481300 0.000000
	CHANNELS 6 Xposition Yposition Zposition Xrotation Yrotation Zrotation
	JOINT Spine
	{
		OFFSET -0.279200 12.230698 -2.892100
		CHANNELS 3 Xrotation Yrotation Zrotation
		JOINT Spine1
		{
			OFFSET -0.325700 14.269203 -3.374200
			CHANNELS 3 Xrotation Yrotation Zrotation
			JOINT Spine2
			{
				OFFSET -0.372300 16.307602 -0.352600
				CHANNELS 3 Xrotation Yrotation Zrotation
				JOINT Neck
				{
					OFFSET -0.418800 17.814194 8.416900
					CHANNELS 3 Xrotation Yrotation Zrotation
					JOINT Head
					{
						OFFSET 0.000000 7.031097 3.806800
						CHANNELS 3 Xrotation Yrotation Zrotation
						JOINT HeadTop_End
						{
							OFFSET 0.000000 24.646606 12.978600
							CHANNELS 3 Xrotation Yrotation Zrotation
							End Site
							{
								OFFSET 0.000000 27.854965 0.000000
							}
						}
					}
				}
				JOINT LeftShoulder
				{
					OFFSET 16.952999 14.495407 -7.737500
					CHANNELS 3 Xrotation Yrotation Zrotation
					JOINT LeftArm
					{
						OFFSET 9.308998 -2.777710 0.208600
						CHANNELS 3 Xrotation Yrotation Zrotation
						JOINT LeftForeArm
						{
							OFFSET 29.972298 0.000000 0.000000
							CHANNELS 3 Xrotation Yrotation Zrotation
							JOINT LeftHand
							{
								OFFSET 26.026505 0.000000 0.000000
								CHANNELS 3 Xrotation Yrotation Zrotation
								JOINT LeftHandThumb1
								{
									OFFSET 12.240501 -7.147949 9.207150
									CHANNELS 3 Xrotation Yrotation Zrotation
									JOINT LeftHandThumb2
									{
										OFFSET 4.138618 -2.389435 2.389433
										CHANNELS 3 Xrotation Yrotation Zrotation
										JOINT LeftHandThumb3
										{
											OFFSET 2.726913 -1.574387 1.574386
											CHANNELS 3 Xrotation Yrotation Zrotation
											JOINT LeftHandThumb4
											{
												OFFSET 3.941010 -2.275345 2.275342
												CHANNELS 3 Xrotation Yrotation Zrotation
												End Site
												{
													OFFSET -0.005798 5.087799 0.009903
												}
											}
										}
									}
								}
								JOINT LeftHandIndex1
								{
									OFFSET 24.424698 -1.985611 5.953459
									CHANNELS 3 Xrotation Yrotation Zrotation
									JOINT LeftHandIndex2
									{
										OFFSET 6.426697 0.000000 0.000000
										CHANNELS 3 Xrotation Yrotation Zrotation
										JOINT LeftHandIndex3
										{
											OFFSET 5.337898 0.000000 0.000000
											CHANNELS 3 Xrotation Yrotation Zrotation
											JOINT LeftHandIndex4
											{
												OFFSET 4.409401 0.000000 0.000000
												CHANNELS 3 Xrotation Yrotation Zrotation
												End Site
												{
													OFFSET 0.000000 4.409363 0.014373
												}
											}
										}
									}
								}
								JOINT LeftHandMiddle1
								{
									OFFSET 23.810104 0.000000 0.000000
									CHANNELS 3 Xrotation Yrotation Zrotation
									JOINT LeftHandMiddle2
									{
										OFFSET 7.176498 0.000000 0.000000
										CHANNELS 3 Xrotation Yrotation Zrotation
										JOINT LeftHandMiddle3
										{
											OFFSET 6.774902 0.000000 0.000000
											CHANNELS 3 Xrotation Yrotation Zrotation
											JOINT LeftHandMiddle4
											{
												OFFSET 5.403328 0.000000 0.000000
												CHANNELS 3 Xrotation Yrotation Zrotation
												End Site
												{
													OFFSET -0.027702 5.403244 0.017414
												}
											}
										}
									}
								}
								JOINT LeftHandRing1
								{
									OFFSET 22.908401 -0.839279 -6.020567
									CHANNELS 3 Xrotation Yrotation Zrotation
									JOINT LeftHandRing2
									{
										OFFSET 6.337502 0.000000 0.000000
										CHANNELS 3 Xrotation Yrotation Zrotation
										JOINT LeftHandRing3
										{
											OFFSET 5.779297 0.000000 0.000000
											CHANNELS 3 Xrotation Yrotation Zrotation
											JOINT LeftHandRing4
											{
												OFFSET 4.965698 0.000000 0.000000
												CHANNELS 3 Xrotation Yrotation Zrotation
												End Site
												{
													OFFSET 0.000000 4.965668 0.016186
												}
											}
										}
									}
								}
								JOINT LeftHandPinky1
								{
									OFFSET 20.037003 -1.530319 -10.950146
									CHANNELS 3 Xrotation Yrotation Zrotation
									JOINT LeftHandPinky2
									{
										OFFSET 5.254700 0.000000 0.000000
										CHANNELS 3 Xrotation Yrotation Zrotation
										JOINT LeftHandPinky3
										{
											OFFSET 4.810204 0.000000 0.000000
											CHANNELS 3 Xrotation Yrotation Zrotation
											JOINT LeftHandPinky4
											{
												OFFSET 3.647202 0.000000 0.000000
												CHANNELS 3 Xrotation Yrotation Zrotation
												End Site
												{
													OFFSET 0.000000 3.647186 0.011889
												}
											}
										}
									}
								}
							}
						}
					}
				}
				JOINT RightShoulder
				{
					OFFSET -15.141001 14.495407 -7.737500
					CHANNELS 3 Xrotation Yrotation Zrotation
					JOINT RightArm
					{
						OFFSET -9.308998 -2.777710 0.208500
						CHANNELS 3 Xrotation Yrotation Zrotation
						JOINT RightForeArm
						{
							OFFSET -29.972300 0.000000 0.000000
							CHANNELS 3 Xrotation Yrotation Zrotation
							JOINT RightHand
							{
								OFFSET -26.026505 0.000000 0.000000
								CHANNELS 3 Xrotation Yrotation Zrotation
								JOINT RightHandThumb1
								{
									OFFSET -12.240601 -7.148026 9.207092
									CHANNELS 3 Xrotation Yrotation Zrotation
									JOINT RightHandThumb2
									{
										OFFSET -4.138618 -2.389435 2.389433
										CHANNELS 3 Xrotation Yrotation Zrotation
										JOINT RightHandThumb3
										{
											OFFSET -2.726974 -1.574417 1.574421
											CHANNELS 3 Xrotation Yrotation Zrotation
											JOINT RightHandThumb4
											{
												OFFSET -3.941010 -2.275345 2.275343
												CHANNELS 3 Xrotation Yrotation Zrotation
												End Site
												{
													OFFSET 0.005814 5.087799 0.009927
												}
											}
										}
									}
								}
								JOINT RightHandIndex1
								{
									OFFSET -24.424698 -1.985657 5.953444
									CHANNELS 3 Xrotation Yrotation Zrotation
									JOINT RightHandIndex2
									{
										OFFSET -6.426697 0.000000 0.000000
										CHANNELS 3 Xrotation Yrotation Zrotation
										JOINT RightHandIndex3
										{
											OFFSET -5.337898 0.000000 0.000000
											CHANNELS 3 Xrotation Yrotation Zrotation
											JOINT RightHandIndex4
											{
												OFFSET -4.409401 0.000000 0.000000
												CHANNELS 3 Xrotation Yrotation Zrotation
												End Site
												{
													OFFSET 0.000000 4.409363 0.014408
												}
											}
										}
									}
								}
								JOINT RightHandMiddle1
								{
									OFFSET -23.810097 0.000000 0.000000
									CHANNELS 3 Xrotation Yrotation Zrotation
									JOINT RightHandMiddle2
									{
										OFFSET -7.176498 0.000000 0.000000
										CHANNELS 3 Xrotation Yrotation Zrotation
										JOINT RightHandMiddle3
										{
											OFFSET -6.774902 0.000000 0.000000
											CHANNELS 3 Xrotation Yrotation Zrotation
											JOINT RightHandMiddle4
											{
												OFFSET -5.403328 0.000000 0.000000
												CHANNELS 3 Xrotation Yrotation Zrotation
												End Site
												{
													OFFSET 0.027702 5.403244 0.017457
												}
											}
										}
									}
								}
								JOINT RightHandRing1
								{
									OFFSET -22.908302 -0.839325 -6.020576
									CHANNELS 3 Xrotation Yrotation Zrotation
									JOINT RightHandRing2
									{
										OFFSET -6.337502 0.000000 0.000000
										CHANNELS 3 Xrotation Yrotation Zrotation
										JOINT RightHandRing3
										{
											OFFSET -5.779297 0.000000 0.000000
											CHANNELS 3 Xrotation Yrotation Zrotation
											JOINT RightHandRing4
											{
												OFFSET -4.965698 0.000000 0.000000
												CHANNELS 3 Xrotation Yrotation Zrotation
												End Site
												{
													OFFSET 0.000000 4.965668 0.016226
												}
											}
										}
									}
								}
								JOINT RightHandPinky1
								{
									OFFSET -20.037003 -1.530334 -10.950259
									CHANNELS 3 Xrotation Yrotation Zrotation
									JOINT RightHandPinky2
									{
										OFFSET -5.254700 0.000000 0.000000
										CHANNELS 3 Xrotation Yrotation Zrotation
										JOINT RightHandPinky3
										{
											OFFSET -4.810204 0.000000 0.000000
											CHANNELS 3 Xrotation Yrotation Zrotation
											JOINT RightHandPinky4
											{
												OFFSET -3.647202 0.000000 0.000000
												CHANNELS 3 Xrotation Yrotation Zrotation
												End Site
												{
													OFFSET 0.000000 3.647186 0.011917
												}
											}
										}
									}
								}
							}
						}
					}
				}
			}
		}
	}
	JOINT LeftUpLeg
	{
		OFFSET 15.427100 -6.655098 0.678600
		CHANNELS 3 Xrotation Yrotation Zrotation
		JOINT LeftLeg
		{
			OFFSET 4.081073 -39.591068 13.024000
			CHANNELS 3 Xrotation Yrotation Zrotation
			JOINT LeftFoot
			{
				OFFSET -4.081074 -37.707932 -15.979700
				CHANNELS 3 Xrotation Yrotation Zrotation
				JOINT LeftToeBase
				{
					OFFSET 5.346399 -15.068900 20.645000
					CHANNELS 3 Xrotation Yrotation Zrotation
					JOINT LeftToe_End
					{
						OFFSET 2.754700 0.931300 11.300900
						CHANNELS 3 Xrotation Yrotation Zrotation
						End Site
						{
							OFFSET 0.000000 11.669021 0.000000
						}
					}
				}
			}
		}
	}
	JOINT RightUpLeg
	{
		OFFSET -15.569500 -6.655098 0.678600
		CHANNELS 3 Xrotation Yrotation Zrotation
		JOINT RightLeg
		{
			OFFSET -4.081825 -39.591045 13.023800
			CHANNELS 3 Xrotation Yrotation Zrotation
			JOINT RightFoot
			{
				OFFSET 4.081824 -37.707954 -15.979600
				CHANNELS 3 Xrotation Yrotation Zrotation
				JOINT RightToeBase
				{
					OFFSET -5.346400 -15.068900 20.645000
					CHANNELS 3 Xrotation Yrotation Zrotation
					JOINT RightToe_End
					{
						OFFSET -2.754700 0.931300 11.300900
						CHANNELS 3 Xrotation Yrotation Zrotation
						End Site
						{
							OFFSET 0.000000 11.669021 0.000000
						}
					}
				}
			}
		}
	}
}
MOTION
Frames: 6
Frame Time: 0.033333
0.109952 88.876320 -0.589894 -6.083008 1.241625 -0.335511 1.315090 0.074757 0.156170 2.762232 0.167027 0.153772 2.762262 0.166715 0.153600 -2.031263 -0.198671 1.394608 -3.483196 0.875245 0.207388 0.000000 0.000000 0.000000 8.854234 2.742848 -7.491907 -1.325351 -25.622901 -58.769181 -0.000004 -11.256292 0.000003 -3.090471 -3.507629 -10.699650 -14.048015 -4.880283 17.748364 13.578133 35.880582 -6.389776 33.906220 50.423079 -18.223923 -0.000001 -0.000000 -0.000004 0.405051 3.983409 -56.694573 8.537140 6.679892 -103.957071 1.775815 4.619793 -42.035139 -0.000002 -0.000001 -0.000001 0.572297 4.387308 -61.156161 8.677626 6.643658 -105.167838 2.179233 5.029816 -46.828494 0.000004 0.000002 -0.000002 3.236751 5.886989 -64.291416 6.573451 6.874345 -87.430492 1.470163 4.257418 -38.087273 0.000002 -0.000001 -0.000001 8.406951 7.787263 -71.093875 6.099319 2.750551 -83.482889 1.815628 4.663422 -42.527083 0.000001 -0.000000 -0.000000 6.392669 -0.674818 6.789782 -2.892803 16.819968 64.460880 -0.000001 8.004045 -0.000007 4.011353 14.306592 5.990761 -8.418495 0.557509 -2.200653 17.948417 -38.341769 3.231606 12.284049 -33.174867 -1.326450 -0.000003 -0.000001 -0.000004 1.531046 -5.287094 67.579784 10.559697 -5.939856 121.379264 0.412088 -2.362454 19.787388 0.000000 -0.000000 -0.000000 2.282026 -5.526346 65.795895 7.467763 -6.928864 94.298596 1.608962 -4.484686 39.917685 -0.000001 -0.000002 -0.000000 4.171161 -6.373406 67.638674 6.892377 -6.948018 89.538227 1.069222 -3.790962 32.704428 -0.000001 -0.000000 -0.000001 3.760116 -6.182391 64.818215 7.230608 -6.942545 92.334739 2.120421 -5.002942 45.916234 0.000003 0.000000 -0.000001 -10.871286 10.113153 12.165548 30.659305 -9.082949 -3.596057 -15.183832 -6.034896 -2.533449 -0.436745 -0.000002 0.000001 -0.000000 0.000000 0.000000 -10.608789 -14.871902 -9.244549 31.711622 7.938610 -2.408779 -15.906416 -0.926534 5.266941 -0.993731 -0.000004 0.000002 -0.000000 -0.000001 -0.000000 
0.176814 88.940666 -0.546107 -6.116558 1.165854 -0.381309 1.308755 0.068873 0.162169 2.748593 0.158435 0.150340 2.748622 0.158122 0.150178 -2.046983 -0.184655 1.393668 -3.522096 0.954570 0.151356 0.000000 0.000000 -0.000000 8.932756 2.690329 -7.561848 -1.346134 -25.687150 -58.676420 0.000009 -11.153174 0.000018 -3.097836 -3.361481 -10.927171 -14.010664 -4.818272 17.738599 13.611484 35.939059 -6.412407 34.891813 51.014430 -18.890777 -0.000000 0.000000 -0.000002 0.405657 3.978925 -56.622046 8.534350 6.680588 -103.933022 1.747006 4.587725 -41.676076 0.000002 0.000000 -0.000001 0.575088 4.374668 -60.946857 8.667788 6.646293 -105.082952 2.173706 5.024677 -46.765540 0.000003 -0.000000 0.000001 3.245618 5.888354 -64.081818 6.544393 6.872984 -87.187720 1.460351 4.244902 -37.954863 0.000005 0.000001 0.000000 8.392088 7.802207 -70.818256 6.088569 2.749319 -83.392826 1.808976 4.656187 -42.445125 -0.000003 -0.000000 0.000001 6.400581 -0.667948 6.798728 -2.844950 16.807084 64.476316 -0.000001 7.991463 0.000019 3.985019 14.249271 6.234239 -8.314280 0.256349 -1.705492 17.889640 -38.239149 3.209675 12.279840 -33.173467 -1.342865 -0.000001 0.000003 0.000006 1.551452 -5.291627 67.510191 10.549625 -5.945959 121.281880 0.383673 -2.281937 19.085615 0.000002 0.000001 -0.000002 2.280229 -5.516956 65.569386 7.471082 -6.928626 94.326087 1.611322 -4.482163 39.914423 0.000000 0.000000 -0.000000 4.184951 -6.378802 67.543372 6.891087 -6.948004 89.527504 1.058112 -3.759527 32.438826 -0.000004 -0.000000 -0.000001 3.811015 -6.206481 64.895704 7.225154 -6.942750 92.289680 2.106142 -4.989123 45.752432 -0.000003 0.000003 -0.000002 -10.710824 10.134526 12.100935 30.543226 -9.182441 -3.584676 -15.186570 -5.835066 -2.439041 -0.405507 0.000001 -0.000001 0.000000 0.000000 -0.000000 -10.470162 -14.870871 -9.173698 31.534396 7.972700 -2.484814 -15.822604 -0.937235 5.342329 -0.983909 -0.000009 0.000001 -0.000000 0.000000 -0.000000 
0.249537 89.087555 -0.494211 -6.117763 1.055748 -0.429850 1.300232 0.062267 0.169052 2.730173 0.148963 0.146370 2.730204 0.148652 0.146219 -2.069137 -0.171560 1.392007 -3.557063 1.027795 0.100896 -0.000000 -0.000000 0.000000 9.004369 2.641846 -7.625140 -1.364086 -25.741699 -58.606445 -0.000002 -11.049290 0.000002 -3.096393 -3.219703 -11.139671 -13.975874 -4.758378 17.725007 13.643492 35.995025 -6.434132 35.886179 51.589812 -19.569791 0.000000 0.000001 0.000002 0.410003 3.979235 -56.583490 8.536955 6.679947 -103.955445 1.718168 4.555250 -41.314380 0.000003 0.000001 -0.000001 0.579388 4.365364 -60.773377 8.662921 6.647590 -105.040926 2.169714 5.020919 -46.719904 -0.000001 0.000000 0.000002 3.255579 5.890815 -63.902137 6.521297 6.871821 -86.994692 1.451018 4.232941 -37.828627 0.000001 0.000000 -0.000000 8.379209 7.815383 -70.577226 6.081739 2.748516 -83.335657 1.803299 4.649989 -42.375136 -0.000002 0.000000 0.000000 6.403411 -0.665141 6.800737 -2.795341 16.789961 64.493412 0.000000 7.975006 0.000017 3.965572 14.192988 6.471561 -8.209712 -0.035333 -1.217178 17.832593 -38.139438 3.188398 12.277708 -33.175998 -1.358316 -0.000000 0.000004 0.000005 1.574786 -5.298202 67.454204 10.542356 -5.950345 121.211788 0.356574 -2.202134 18.393076 -0.000002 0.000000 0.000002 2.280602 -5.509431 65.364343 7.476045 -6.928251 94.367253 1.613931 -4.479438 39.911203 0.000003 0.000001 -0.000001 4.199441 -6.384587 67.454579 6.889110 -6.947978 89.511296 1.045868 -3.725920 32.152672 -0.000000 0.000001 0.000001 3.861235 -6.230153 64.981026 7.220549 -6.942933 92.251472 2.091757 -4.975126 45.586855 -0.000001 0.000001 -0.000000 -10.458192 10.114571 11.989286 30.238996 -9.236645 -3.570152 -15.117845 -5.571691 -2.364705 -0.386453 0.000001 -0.000002 0.000000 -0.000000 -0.000000 -10.283623 -14.890477 -9.068725 31.171720 8.034798 -2.574749 -15.634066 -0.941341 5.422390 -0.981780 0.000004 -0.000000 0.000000 0.000000 -0.000000 
0.330097 89.318932 -0.430247 -6.065801 0.932056 -0.480484 1.289956 0.055279 0.176962 2.707906 0.139028 0.142099 2.707930 0.138720 0.141961 -2.097270 -0.159482 1.389320 -3.593972 1.093755 0.056037 0.000000 -0.000000 -0.000000 9.067344 2.598527 -7.680055 -1.379123 -25.783479 -58.561844 0.000003 -10.945126 0.000003 -3.086622 -3.083701 -11.332556 -13.942730 -4.700290 17.709523 13.675334 36.050749 -6.455816 36.878172 52.143351 -20.252687 -0.000000 -0.000000 0.000000 0.416579 3.982776 -56.571452 8.543236 6.678393 -104.009342 1.689468 4.522476 -40.951690 0.000002 0.000001 -0.000000 0.584928 4.358724 -60.628208 8.661638 6.647946 -105.029779 2.166783 5.018181 -46.686436 -0.000001 -0.000001 0.000002 3.266291 5.894077 -63.746422 6.502767 6.870836 -86.839824 1.442000 4.221343 -37.706326 -0.000001 -0.000000 0.000000 8.367888 7.827151 -70.363414 6.077875 2.748066 -83.303221 1.798408 4.644649 -42.314828 0.000004 -0.000000 -0.000000 6.402072 -0.665488 6.796552 -2.746602 16.768905 64.512086 -0.000003 7.954208 -0.000022 3.953086 14.140372 6.698265 -8.106558 -0.314381 -0.740101 17.777789 -38.043344 3.168053 12.278002 -33.183395 -1.372770 -0.000002 0.000003 -0.000001 1.600240 -5.306434 67.411378 10.537264 -5.953407 121.162679 0.330877 -2.123339 17.712169 0.000000 0.000000 0.000000 2.282631 -5.503566 65.181226 7.481890 -6.927797 94.415686 1.616535 -4.476517 39.906770 0.000003 0.000000 0.000000 4.214188 -6.390542 67.372965 6.886812 -6.947963 89.492205 1.033122 -3.691421 31.857560 0.000002 -0.000001 -0.000001 3.910403 -6.253172 65.072278 7.216751 -6.943072 92.220108 2.077425 -4.961085 45.421280 0.000006 -0.000001 -0.000001 -10.138062 10.042745 11.823893 29.745067 -9.246083 -3.545503 -14.971799 -5.250816 -2.310973 -0.376429 -0.000004 0.000002 0.000000 -0.000000 -0.000000 -10.059877 -14.948882 -8.943322 30.611395 8.130235 -2.660622 -15.340648 -0.937825 5.501888 -0.987830 0.000007 -0.000001 -0.000000 -0.000000 -0.000000 
0.426706 89.616501 -0.351970 -5.958287 0.817490 -0.529679 1.278070 0.048177 0.186568 2.682046 0.129064 0.137718 2.682071 0.128762 0.137593 -2.132840 -0.148570 1.385767 -3.636445 1.151833 0.017095 -0.000000 0.000000 -0.000000 9.120000 2.561322 -7.724721 -1.391292 -25.808163 -58.546708 0.000002 -10.838872 -0.000010 -3.071085 -2.955602 -11.499482 -13.910728 -4.645004 17.695869 13.707027 36.106122 -6.477476 37.842103 52.662343 -20.920284 -0.000000 0.000000 -0.000000 0.422017 3.986329 -56.570652 8.549602 6.676817 -104.064127 1.661192 4.489783 -40.591671 0.000001 -0.000000 -0.000001 0.590755 4.353499 -60.500798 8.661660 6.647926 -105.029970 2.164251 5.015783 -46.657446 0.000001 0.000001 -0.000001 3.276726 5.897493 -63.604675 6.486282 6.869922 -86.701930 1.432815 4.209439 -37.581285 0.000001 -0.000000 -0.000000 8.357859 7.838054 -70.168118 6.075137 2.747741 -83.280353 1.793756 4.639557 -42.257339 -0.000002 0.000000 0.000000 6.396671 -0.668671 6.785741 -2.700500 16.743840 64.534646 -0.000004 7.927638 0.000036 3.950784 14.092860 6.909215 -8.009828 -0.571350 -0.286496 17.726284 -37.952889 3.148958 12.282488 -33.199135 -1.385702 -0.000000 -0.000002 0.000004 1.626441 -5.315808 67.382992 10.533209 -5.955857 121.123528 0.306597 -2.045826 17.044717 0.000002 0.000002 -0.000001 2.285858 -5.499370 65.026352 7.487181 -6.927405 94.459494 1.618649 -4.473321 39.897898 0.000002 0.000003 -0.000000 4.228517 -6.396421 67.300162 6.884841 -6.947945 89.475963 1.021047 -3.658493 31.575633 -0.000001 -0.000002 -0.000000 3.957394 -6.275038 65.164574 7.213772 -6.943190 92.195458 2.063178 -4.947062 45.256208 0.000001 0.000000 -0.000002 -9.785074 9.934154 11.603244 29.103672 -9.240172 -3.508173 -14.759670 -4.886467 -2.257287 -0.369140 -0.000002 -0.000003 0.000000 -0.000000 0.000000 -9.806585 -15.028966 -8.816247 29.885646 8.234845 -2.734116 -14.968703 -0.931965 5.596837 -0.995971 0.000006 0.000000 -0.000000 -0.000000 -0.000000 
0.545404 89.949074 -0.263377 -5.812561 0.715632 -0.572212 1.262822 0.040768 0.198526 2.648777 0.118865 0.133053 2.648796 0.118576 0.132941 -2.184468 -0.140054 1.380371 -3.692004 1.193568 -0.009619 0.000000 0.000000 0.000000 9.152261 2.536394 -7.748952 -1.398755 -25.798519 -58.591548 -0.000009 -10.727785 -0.000021 -3.045733 -2.841061 -11.616245 -13.881652 -4.596078 17.686117 13.735294 36.155439 -6.496770 38.726148 53.122599 -21.534903 0.000000 0.000000 -0.000001 0.422809 3.986362 -56.563068 8.552631 6.676057 -104.090232 1.633731 4.457642 -40.239697 0.000000 -0.000000 -0.000000 0.595745 4.348669 -60.385682 8.661278 6.648039 -105.026685 2.161728 5.013426 -46.628701 -0.000000 -0.000001 0.000001 3.285223 5.900121 -63.468782 6.469971 6.868956 -86.565633 1.422614 4.196186 -37.442100 0.000000 -0.000001 -0.000001 8.349677 7.848282 -69.991400 6.072000 2.747374 -83.253941 1.788545 4.633822 -42.192927 -0.000003 0.000000 -0.000000 6.382614 -0.677912 6.760799 -2.660898 16.708449 64.568790 -0.000003 7.887336 -0.000010 3.970064 14.054960 7.089927 -7.928704 -0.788466 0.118041 17.680749 -37.872760 3.132077 12.293903 -33.228918 -1.396056 0.000001 0.000004 0.000002 1.651703 -5.325881 67.374536 10.529382 -5.958153 121.086632 0.283818 -1.970023 16.394464 0.000002 0.000000 -0.000000 2.289887 -5.497172 64.914514 7.490414 -6.927153 94.486371 1.619563 -4.469640 39.879497 0.000001 0.000001 -0.000000 4.241139 -6.401623 67.238144 6.884482 -6.947939 89.473006 1.010776 -3.629981 31.331864 0.000004 0.000000 -0.000000 3.999773 -6.294602 65.249828 7.211677 -6.943263 92.178184 2.048868 -4.932906 45.090085 -0.000000 0.000000 -0.000001 -9.423632 9.814382 11.337463 28.380035 -9.241781 -3.464638 -14.506642 -4.498482 -2.184695 -0.361844 0.000005 -0.000002 0.000000 -0.000000 0.000000 -9.538673 -15.100768 -8.701345 29.064299 8.327391 -2.802581 -14.555237 -0.928788 5.722453 -0.998406 0.000000 -0.000003 0.000000 -0.000001 -0.000000 
